<svg xmlns="http://www.w3.org/2000/svg" viewBox="0 0 64 64" width="550px" height="550px"><linearGradient id="qCADC_UzB1VetSe0e0IEaa" x1="32" x2="32" y1="-465.167" y2="-409.498" gradientTransform="translate(0 470)" gradientUnits="userSpaceOnUse"><stop offset="0" stop-color="#1a6dff"/><stop offset="1" stop-color="#c822ff"/></linearGradient><path fill="url(#qCADC_UzB1VetSe0e0IEaa)" d="M32,58C17.663,58,6,46.337,6,32S17.663,6,32,6s26,11.663,26,26S46.337,58,32,58z M32,8 C18.767,8,8,18.767,8,32s10.767,24,24,24s24-10.767,24-24S45.233,8,32,8z"/><linearGradient id="qCADC_UzB1VetSe0e0IEab" x1="33.031" x2="33.031" y1="-166.72" y2="-180.812" gradientTransform="matrix(1 0 0 -1 0 -142)" gradientUnits="userSpaceOnUse"><stop offset="0" stop-color="#6dc7ff"/><stop offset="1" stop-color="#e6abff"/></linearGradient><path fill="url(#qCADC_UzB1VetSe0e0IEab)" d="M26,39.365V24.635L40.062,32L26,39.365z"/><linearGradient id="qCADC_UzB1VetSe0e0IEac" x1="33.964" x2="33.964" y1="-153.334" y2="-195.371" gradientTransform="matrix(1 0 0 -1 0 -142)" gradientUnits="userSpaceOnUse"><stop offset="0" stop-color="#1a6dff"/><stop offset="1" stop-color="#c822ff"/></linearGradient><path fill="url(#qCADC_UzB1VetSe0e0IEac)" d="M26,41V23l15.927,9L26,41z M27.939,26.271v11.457L38.078,32L27.939,26.271z"/><linearGradient id="qCADC_UzB1VetSe0e0IEad" x1="32" x2="32" y1="13.835" y2="53.643" gradientUnits="userSpaceOnUse"><stop offset="0" stop-color="#1a6dff"/><stop offset="1" stop-color="#c822ff"/></linearGradient><path fill="url(#qCADC_UzB1VetSe0e0IEad)" d="M32,47c-8.271,0-15-6.729-15-15s6.729-15,15-15s15,6.729,15,15S40.271,47,32,47z M32,19 c-7.168,0-13,5.832-13,13s5.832,13,13,13s13-5.832,13-13S39.168,19,32,19z"/></svg>